  <svg data-v-13a00dce="" width='300' height='300' id="shape_HTDbvxvjZK" data-noselect=""
  viewBox="-5.684341886080802e-14 -5.684341886080802e-14 200.0000000000002 200.0000000000001"
  preserveAspectRatio="none" version="1.1" xmlns="http://www.w3.org/2000/svg"
  xmlns:xlink="http://www.w3.org/1999/xlink">
  <defs data-v-13a00dce=""></defs>
        <path d="M174.3,4.2H10.6c-3.1,0-5.7,2.5-5.7,5.7v163.7c0,3.1,2.5,5.7,5.7,5.7h163.7c3.1,0,5.7-2.5,5.7-5.7V9.9
C180,6.7,177.5,4.2,174.3,4.2z M45.1,156.9c0,3.3-2.7,6-6,6h-19v-12h13V64.6h12V156.9z M127.2,162.9h-21.6c-1.7,0-3.4-0.8-4.5-2.1
l-46-53.3c-1.5-1.8-1.9-4.3-0.9-6.4c1-2.1,3.1-3.5,5.4-3.5h33.5c7.5,0,13.6-6.1,13.6-13.6V68.8c0-7.5-6.1-13.6-13.6-13.6H24.3v-12
h68.8c14.1,0,25.5,11.4,25.5,25.5v15.3c0,14.1-11.4,25.5-25.5,25.5H72.7l35.7,41.3h18.8V162.9z" fill="#5672CD"
          stroke-width="0"></path>
      </svg>